<svg width="41" height="41" viewBox="0 0 41 41" fill="none" xmlns="http://www.w3.org/2000/svg">
<rect x="0.339844" y="0.406738" width="40" height="40" rx="20" fill="#F3F3F3"/>
<path d="M28.3398 29.4067V27.4067C28.3398 26.3459 27.9184 25.3285 27.1683 24.5783C26.4181 23.8282 25.4007 23.4067 24.3398 23.4067H16.3398C15.279 23.4067 14.2616 23.8282 13.5114 24.5783C12.7613 25.3285 12.3398 26.3459 12.3398 27.4067V29.4067M24.3398 15.4067C24.3398 17.6159 22.549 19.4067 20.3398 19.4067C18.1307 19.4067 16.3398 17.6159 16.3398 15.4067C16.3398 13.1976 18.1307 11.4067 20.3398 11.4067C22.549 11.4067 24.3398 13.1976 24.3398 15.4067Z" stroke="#979797" stroke-width="2" stroke-linecap="round" stroke-linejoin="round"/>
</svg>
